<mxfile host="app.diagrams.net" agent="Mozilla/5.0 (Macintosh; Intel Mac OS X 10_15_7) AppleWebKit/537.36 (KHTML, like Gecko) Chrome/129.0.0.0 Safari/537.36" version="24.7.17">
  <diagram name="Page-1" id="eVqEowAKZQlb_xAb3Ucc">
    <mxGraphModel dx="2394" dy="1627" grid="1" gridSize="10" guides="1" tooltips="1" connect="1" arrows="1" fold="1" page="1" pageScale="1" pageWidth="850" pageHeight="1100" math="0" shadow="0">
      <root>
        <mxCell id="0" />
        <mxCell id="1" parent="0" />
        <mxCell id="z4wWTOhTZrf2Mlq0umEN-1" value="" style="whiteSpace=wrap;html=1;aspect=fixed;fillColor=#d5e8d4;strokeColor=#82b366;" parent="1" vertex="1">
          <mxGeometry x="120" y="140" width="310" height="310" as="geometry" />
        </mxCell>
        <mxCell id="z4wWTOhTZrf2Mlq0umEN-8" value="" style="rounded=0;whiteSpace=wrap;html=1;fillColor=#dae8fc;strokeColor=#6c8ebf;" parent="1" vertex="1">
          <mxGeometry x="185" y="220" width="190" height="40" as="geometry" />
        </mxCell>
        <mxCell id="z4wWTOhTZrf2Mlq0umEN-9" value="&lt;b&gt;Containers stdout/stderr&lt;/b&gt;" style="text;html=1;align=center;verticalAlign=middle;whiteSpace=wrap;rounded=0;" parent="1" vertex="1">
          <mxGeometry x="200" y="225" width="160" height="30" as="geometry" />
        </mxCell>
        <mxCell id="z4wWTOhTZrf2Mlq0umEN-10" value="" style="rounded=0;whiteSpace=wrap;html=1;fillColor=#dae8fc;strokeColor=#6c8ebf;" parent="1" vertex="1">
          <mxGeometry x="185" y="170" width="190" height="40" as="geometry" />
        </mxCell>
        <mxCell id="z4wWTOhTZrf2Mlq0umEN-11" value="&lt;b&gt;Log files&lt;/b&gt;" style="text;html=1;align=center;verticalAlign=middle;whiteSpace=wrap;rounded=0;" parent="1" vertex="1">
          <mxGeometry x="250" y="175" width="60" height="30" as="geometry" />
        </mxCell>
        <mxCell id="z4wWTOhTZrf2Mlq0umEN-12" value="" style="rounded=0;whiteSpace=wrap;html=1;fillColor=#dae8fc;strokeColor=#6c8ebf;" parent="1" vertex="1">
          <mxGeometry x="185" y="270" width="190" height="40" as="geometry" />
        </mxCell>
        <mxCell id="z4wWTOhTZrf2Mlq0umEN-13" value="&lt;b&gt;HTTP push events&lt;/b&gt;" style="text;html=1;align=center;verticalAlign=middle;whiteSpace=wrap;rounded=0;" parent="1" vertex="1">
          <mxGeometry x="200" y="275" width="160" height="30" as="geometry" />
        </mxCell>
        <mxCell id="z4wWTOhTZrf2Mlq0umEN-14" value="" style="rounded=0;whiteSpace=wrap;html=1;fillColor=#dae8fc;strokeColor=#6c8ebf;" parent="1" vertex="1">
          <mxGeometry x="185" y="320" width="190" height="40" as="geometry" />
        </mxCell>
        <mxCell id="z4wWTOhTZrf2Mlq0umEN-15" value="&lt;b&gt;Messages queue&lt;/b&gt;" style="text;html=1;align=center;verticalAlign=middle;whiteSpace=wrap;rounded=0;" parent="1" vertex="1">
          <mxGeometry x="195" y="325" width="160" height="30" as="geometry" />
        </mxCell>
        <mxCell id="z4wWTOhTZrf2Mlq0umEN-16" value="" style="rounded=0;whiteSpace=wrap;html=1;fillColor=#dae8fc;strokeColor=#6c8ebf;" parent="1" vertex="1">
          <mxGeometry x="185" y="370" width="190" height="40" as="geometry" />
        </mxCell>
        <mxCell id="z4wWTOhTZrf2Mlq0umEN-17" value="&lt;b&gt;OTEL/grpc push&lt;/b&gt;" style="text;html=1;align=center;verticalAlign=middle;whiteSpace=wrap;rounded=0;" parent="1" vertex="1">
          <mxGeometry x="200" y="375" width="160" height="30" as="geometry" />
        </mxCell>
        <mxCell id="z4wWTOhTZrf2Mlq0umEN-18" value="&lt;b&gt;Extract&lt;/b&gt;" style="text;html=1;align=center;verticalAlign=middle;whiteSpace=wrap;rounded=0;" parent="1" vertex="1">
          <mxGeometry x="230" y="460" width="60" height="30" as="geometry" />
        </mxCell>
        <mxCell id="z4wWTOhTZrf2Mlq0umEN-19" value="&lt;b&gt;Sources&lt;/b&gt;" style="text;html=1;align=center;verticalAlign=middle;whiteSpace=wrap;rounded=0;" parent="1" vertex="1">
          <mxGeometry x="250" y="140" width="60" height="30" as="geometry" />
        </mxCell>
        <mxCell id="z4wWTOhTZrf2Mlq0umEN-20" value="" style="whiteSpace=wrap;html=1;aspect=fixed;fillColor=#d5e8d4;strokeColor=#82b366;" parent="1" vertex="1">
          <mxGeometry x="522.5" y="140" width="310" height="310" as="geometry" />
        </mxCell>
        <mxCell id="z4wWTOhTZrf2Mlq0umEN-21" value="&lt;b&gt;Transforms&lt;/b&gt;" style="text;html=1;align=center;verticalAlign=middle;whiteSpace=wrap;rounded=0;" parent="1" vertex="1">
          <mxGeometry x="635" y="145" width="85" height="30" as="geometry" />
        </mxCell>
        <mxCell id="z4wWTOhTZrf2Mlq0umEN-22" value="&lt;b&gt;Transform&lt;/b&gt;" style="text;html=1;align=center;verticalAlign=middle;whiteSpace=wrap;rounded=0;" parent="1" vertex="1">
          <mxGeometry x="635" y="460" width="60" height="30" as="geometry" />
        </mxCell>
        <mxCell id="z4wWTOhTZrf2Mlq0umEN-24" value="" style="rounded=0;whiteSpace=wrap;html=1;fillColor=#dae8fc;strokeColor=#6c8ebf;" parent="1" vertex="1">
          <mxGeometry x="582.5" y="230" width="190" height="40" as="geometry" />
        </mxCell>
        <mxCell id="z4wWTOhTZrf2Mlq0umEN-25" value="" style="rounded=0;whiteSpace=wrap;html=1;fillColor=#dae8fc;strokeColor=#6c8ebf;" parent="1" vertex="1">
          <mxGeometry x="582.5" y="305" width="190" height="40" as="geometry" />
        </mxCell>
        <mxCell id="z4wWTOhTZrf2Mlq0umEN-26" value="&lt;b&gt;JSON/yaml mapping&lt;/b&gt;" style="text;html=1;align=center;verticalAlign=middle;whiteSpace=wrap;rounded=0;" parent="1" vertex="1">
          <mxGeometry x="602.5" y="235" width="150" height="30" as="geometry" />
        </mxCell>
        <mxCell id="z4wWTOhTZrf2Mlq0umEN-27" value="&lt;b&gt;Grok / regexp parse&lt;/b&gt;" style="text;html=1;align=center;verticalAlign=middle;whiteSpace=wrap;rounded=0;" parent="1" vertex="1">
          <mxGeometry x="590" y="310" width="150" height="30" as="geometry" />
        </mxCell>
        <mxCell id="z4wWTOhTZrf2Mlq0umEN-28" value="" style="shape=flexArrow;endArrow=classic;html=1;rounded=0;fillColor=#d5e8d4;strokeColor=#82b366;" parent="1" edge="1">
          <mxGeometry width="50" height="50" relative="1" as="geometry">
            <mxPoint x="840" y="294.5" as="sourcePoint" />
            <mxPoint x="910" y="294.5" as="targetPoint" />
          </mxGeometry>
        </mxCell>
        <mxCell id="z4wWTOhTZrf2Mlq0umEN-29" value="" style="whiteSpace=wrap;html=1;aspect=fixed;fillColor=#d5e8d4;strokeColor=#82b366;" parent="1" vertex="1">
          <mxGeometry x="920" y="140" width="310" height="310" as="geometry" />
        </mxCell>
        <mxCell id="z4wWTOhTZrf2Mlq0umEN-30" value="&lt;b&gt;Sinks&lt;/b&gt;" style="text;html=1;align=center;verticalAlign=middle;whiteSpace=wrap;rounded=0;" parent="1" vertex="1">
          <mxGeometry x="1040" y="145" width="85" height="30" as="geometry" />
        </mxCell>
        <mxCell id="z4wWTOhTZrf2Mlq0umEN-31" value="&lt;b&gt;Load&lt;/b&gt;" style="text;html=1;align=center;verticalAlign=middle;whiteSpace=wrap;rounded=0;" parent="1" vertex="1">
          <mxGeometry x="1052.5" y="450" width="60" height="30" as="geometry" />
        </mxCell>
        <mxCell id="z4wWTOhTZrf2Mlq0umEN-32" value="" style="shape=flexArrow;endArrow=classic;html=1;rounded=0;fillColor=#d5e8d4;strokeColor=#82b366;" parent="1" edge="1">
          <mxGeometry width="50" height="50" relative="1" as="geometry">
            <mxPoint x="440" y="294.5" as="sourcePoint" />
            <mxPoint x="510" y="294.5" as="targetPoint" />
          </mxGeometry>
        </mxCell>
        <mxCell id="z4wWTOhTZrf2Mlq0umEN-34" value="&lt;b&gt;TSDB&lt;/b&gt;&lt;br&gt;VictoriaMetrics, Prometheus, etc" style="rounded=0;whiteSpace=wrap;html=1;fillColor=#dae8fc;strokeColor=#6c8ebf;" parent="1" vertex="1">
          <mxGeometry x="987.5" y="185" width="190" height="40" as="geometry" />
        </mxCell>
        <mxCell id="z4wWTOhTZrf2Mlq0umEN-35" value="&lt;b&gt;Indexing search engine&lt;/b&gt;&lt;br&gt;Quickwit, Elasticsearch, Loki" style="rounded=0;whiteSpace=wrap;html=1;fillColor=#dae8fc;strokeColor=#6c8ebf;" parent="1" vertex="1">
          <mxGeometry x="987.5" y="240" width="190" height="40" as="geometry" />
        </mxCell>
        <mxCell id="z4wWTOhTZrf2Mlq0umEN-36" value="&lt;b&gt;File storage&lt;/b&gt;&lt;br&gt;Ceph, S3, etc" style="rounded=0;whiteSpace=wrap;html=1;fillColor=#dae8fc;strokeColor=#6c8ebf;" parent="1" vertex="1">
          <mxGeometry x="987.5" y="300" width="190" height="40" as="geometry" />
        </mxCell>
        <mxCell id="z4wWTOhTZrf2Mlq0umEN-38" value="&lt;b&gt;Other databases&lt;/b&gt;" style="rounded=0;whiteSpace=wrap;html=1;fillColor=#dae8fc;strokeColor=#6c8ebf;" parent="1" vertex="1">
          <mxGeometry x="987.5" y="355" width="190" height="40" as="geometry" />
        </mxCell>
      </root>
    </mxGraphModel>
  </diagram>
</mxfile>
